<?xml version="1.0" encoding="UTF-8" standalone="no"?>
<!-- Generator: Adobe Illustrator 21.0.2, SVG Export Plug-In . SVG Version: 6.00 Build 0)  -->

<svg
   version="1.1"
   id="Layer_1"
   x="0px"
   y="0px"
   viewBox="0 0 240 70"
   style="enable-background:new 0 0 240 70;"
   xml:space="preserve"
   sodipodi:docname="uvic-wordmark-colour_white.svg"
   inkscape:version="1.1.1 (3bf5ae0d25, 2021-09-20)"
   xmlns:inkscape="http://www.inkscape.org/namespaces/inkscape"
   xmlns:sodipodi="http://sodipodi.sourceforge.net/DTD/sodipodi-0.dtd"
   xmlns="http://www.w3.org/2000/svg"
   xmlns:svg="http://www.w3.org/2000/svg"><defs
   id="defs16" /><sodipodi:namedview
   id="namedview14"
   pagecolor="#ffffff"
   bordercolor="#666666"
   borderopacity="1.0"
   inkscape:pageshadow="2"
   inkscape:pageopacity="0.0"
   inkscape:pagecheckerboard="true"
   showgrid="false"
   inkscape:zoom="5.2166667"
   inkscape:cx="99.009585"
   inkscape:cy="24.057508"
   inkscape:window-width="1920"
   inkscape:window-height="1001"
   inkscape:window-x="-9"
   inkscape:window-y="-9"
   inkscape:window-maximized="1"
   inkscape:current-layer="layer1" />
<style
   type="text/css"
   id="style2">
	.st0{fill:#005493;}
	.st1{fill:#002747;}
	.st2{fill:#C63527;}
	.st3{fill:#F5AA1C;}
</style>
<g
   inkscape:groupmode="layer"
   id="layer1"
   inkscape:label="Layer 1" /><g
   id="uvic">
	<path
   id="c"
   class="st0"
   d="M174.2,34.8v-0.2c0-19.8,15.5-34.6,35.3-34.6c14.6,0,24.5,7.1,30,17.3L221.2,28c-2.5-4.7-6-8.1-12-8.1   c-7.5,0-12.4,6.5-12.4,14.5v0.2c0,8.6,5.1,14.7,12.4,14.7c6.3,0,9.8-3.4,12.5-8.3L240,51.3c-5.6,9.9-14.9,17.9-31.4,17.9   C190.2,69.2,174.2,55.4,174.2,34.8z"
   style="fill:#ffffff;fill-opacity:1" />
	<path
   id="i"
   class="st0"
   d="M145.8,1.4H168v66.3h-22.2V1.4z"
   style="fill:#ffffff;fill-opacity:1" />
	<polygon
   id="v-darkblue"
   class="st1"
   points="130.6,1.4 107.5,68.2 116.4,68.2 129.2,36.4 141.3,1.4  "
   style="fill:#005493;fill-opacity:1" />
	<polygon
   id="v-red"
   class="st2"
   points="98.7,68.2 107.9,68.2 130.9,1.4 121.8,1.4  " />
	<path
   id="v-blue"
   class="st0"
   d="M116.4,68.2l26.9-66.8h-4.5c-1.6,22.3-27.2,44.6-28.1,66.8H116.4z"
   style="fill:#ffffff;fill-opacity:1" />
	<path
   id="v-gold"
   class="st3"
   d="M118.4,1.4L95.2,68.2h5c0.9-22.3,26.5-44.6,28.2-66.8C128.4,1.4,118.4,1.4,118.4,1.4z" />
	<polygon
   id="v-half"
   class="st0"
   points="92.6,1.4 67.8,1.4 94.7,68.2 95.2,68.2 105.5,38.6  "
   style="fill:#ffffff;fill-opacity:1" />
	<path
   id="u"
   class="st0"
   d="M0,38V1.4h22.6v36.3c0,8.2,4.3,11.8,10.2,11.8S43,46.3,43,38.2V1.4h22.6v36.1c0,22.7-13.2,31.6-33,31.6   S0,60,0,38z"
   style="fill:#ffffff" />
</g>
</svg>
